<?xml version="1.0" standalone="no"?><svg xmlns="http://www.w3.org/2000/svg" viewBox="0 0 1440 320"><path fill="#273036" fill-opacity="1" d="M0,160L30,149.3C60,139,120,117,180,122.7C240,128,300,160,360,149.3C420,139,480,85,540,64C600,43,660,53,720,85.3C780,117,840,171,900,192C960,213,1020,203,1080,165.3C1140,128,1200,64,1260,48C1320,32,1380,64,1410,80L1440,96L1440,320L1410,320C1380,320,1320,320,1260,320C1200,320,1140,320,1080,320C1020,320,960,320,900,320C840,320,780,320,720,320C660,320,600,320,540,320C480,320,420,320,360,320C300,320,240,320,180,320C120,320,60,320,30,320L0,320Z"></path></svg>