<!DOCTYPE svg PUBLIC "-//W3C//DTD SVG 1.1//EN" "http://www.w3.org/Graphics/SVG/1.1/DTD/svg11.dtd">
<!-- Uploaded to: SVG Repo, www.svgrepo.com, Transformed by: SVG Repo Mixer Tools -->
<svg fill="#b2a4a4" width="64px" height="64px" viewBox="0 0 32.00 32.00" xmlns="http://www.w3.org/2000/svg" stroke="#b2a4a4" stroke-width="0.064">
<g id="SVGRepo_bgCarrier" stroke-width="0"/>
<g id="SVGRepo_tracerCarrier" stroke-linecap="round" stroke-linejoin="round" stroke="#CCCCCC" stroke-width="0.576"/>
<g id="SVGRepo_iconCarrier">
<path d="M 16 3 C 8.832031 3 3 8.832031 3 16 C 3 23.167969 8.832031 29 16 29 C 23.167969 29 29 23.167969 29 16 C 29 8.832031 23.167969 3 16 3 Z M 16 5 C 22.085938 5 27 9.914063 27 16 C 27 22.085938 22.085938 27 16 27 C 9.914063 27 5 22.085938 5 16 C 5 9.914063 9.914063 5 16 5 Z M 12.21875 10.78125 L 10.78125 12.21875 L 14.5625 16 L 10.78125 19.78125 L 12.21875 21.21875 L 16 17.4375 L 19.78125 21.21875 L 21.21875 19.78125 L 17.4375 16 L 21.21875 12.21875 L 19.78125 10.78125 L 16 14.5625 Z"/>
</g>
</svg>